<svg xmlns="http://www.w3.org/2000/svg" width="624" height="135" viewBox="0 0 624 135">
  <path fill="#FFFFFF" fill-rule="evenodd" d="M410.26275,494.904 L410.26275,490.152 L425.38275,490.152 L428.40675,471.144 L433.15875,471.144 L430.13475,490.152 L451.59075,490.152 L454.61475,471.144 L459.36675,471.144 L456.34275,490.152 L470.88675,490.152 L470.88675,494.904 L455.62275,494.904 L452.02275,518.376 L466.42275,518.376 L466.42275,523.128 L451.30275,523.128 L448.27875,543 L443.38275,543 L446.40675,523.128 L425.09475,523.128 L422.07075,543 L417.17475,543 L420.19875,523.128 L405.79875,523.128 L405.79875,518.376 L420.91875,518.376 L424.66275,494.904 L410.26275,494.904 Z M429.55875,494.904 L425.81475,518.376 L447.12675,518.376 L450.87075,494.904 L429.55875,494.904 Z M489.98925,442.632 L479.62125,442.632 L479.62125,437.88 L495.31725,437.88 L495.31725,495.048 C500.93325,488.136 509.57325,482.088 518.93325,482.088 C526.27725,482.088 531.02925,484.68 534.05325,488.856 C536.64525,492.312 537.65325,497.208 537.65325,502.68 L537.65325,538.248 L548.16525,538.248 L548.16525,543 L521.95725,543 L521.95725,538.248 L532.32525,538.248 L532.32525,503.4 C532.32525,498.36 531.46125,494.472 529.44525,491.736 C527.14125,488.712 523.25325,486.984 518.06925,486.984 C509.28525,486.984 501.36525,492.888 495.31725,500.088 L495.31725,538.248 L505.82925,538.248 L505.82925,543 L479.62125,543 L479.62125,538.248 L489.98925,538.248 L489.98925,442.632 Z M579.36375,544.008 C566.69175,544.008 559.34775,536.376 559.34775,526.872 C559.34775,516.072 568.70775,508.872 581.66775,508.872 C588.57975,508.872 596.49975,510.6 600.81975,512.328 L600.81975,501.384 C600.81975,497.64 599.81175,494.472 597.79575,492.024 C595.05975,488.856 590.30775,486.696 583.68375,486.696 C576.77175,486.696 572.73975,489 570.43575,491.304 C571.29975,492.168 571.87575,493.608 571.87575,495.192 C571.87575,497.352 570.14775,499.512 567.55575,499.512 C564.67575,499.512 562.94775,497.352 562.94775,494.616 C562.94775,489 570.57975,482.088 584.11575,482.088 C592.03575,482.088 598.22775,484.392 601.82775,488.568 C604.56375,491.592 606.00375,495.624 606.00375,500.52 L606.00375,538.248 L616.37175,538.248 L616.37175,543 L600.96375,543 L600.96375,533.928 C596.06775,539.256 588.14775,544.008 579.36375,544.008 Z M580.08375,539.4 C588.57975,539.4 595.77975,534.648 600.81975,528.888 L600.81975,516.36 C595.34775,514.632 588.43575,513.336 581.95575,513.336 C570.14775,513.336 564.67575,519.528 564.67575,526.584 C564.67575,533.352 569.57175,539.4 580.08375,539.4 Z M658.65825,544.008 C640.94625,544.008 627.55425,531.624 627.55425,513.624 C627.55425,495.768 641.09025,482.088 657.07425,482.088 C669.74625,482.088 679.97025,490.44 679.97025,498.792 C679.97025,501.96 677.81025,504.696 674.64225,504.696 C672.62625,504.696 670.46625,503.4 670.46625,500.376 C670.46625,498.36 671.61825,496.776 673.92225,495.768 C672.19425,490.584 664.85025,486.84 657.07425,486.84 C645.12225,486.84 633.02625,497.064 633.02625,513.768 C633.02625,528.888 643.97025,539.256 659.23425,539.256 C665.85825,539.256 672.19425,537.24 678.67425,532.92 L678.24225,538.248 C672.62625,542.136 664.99425,544.008 658.65825,544.008 Z M692.59275,543 L692.59275,538.248 L702.96075,538.248 L702.96075,442.632 L692.59275,442.632 L692.59275,437.88 L708.28875,437.88 L708.28875,516.072 L739.68075,487.704 L725.42475,487.704 L725.42475,483.096 L757.24875,483.096 L757.24875,487.848 L746.59275,487.848 L724.84875,507.432 L746.44875,538.248 L757.24875,538.248 L757.24875,543 L743.28075,543 L720.96075,510.312 L708.28875,521.832 L708.28875,538.248 L719.08875,538.248 L719.08875,543 L692.59275,543 Z M796.07925,544.008 C779.95125,544.008 767.27925,531.336 767.27925,513.336 C767.27925,495.912 779.51925,482.088 797.23125,482.088 C805.29525,482.088 813.21525,485.544 818.68725,490.728 L818.68725,442.632 L806.15925,442.632 L806.15925,437.88 L824.01525,437.88 L824.01525,538.248 L834.38325,538.248 L834.38325,543 L818.83125,543 L818.83125,533.064 C813.35925,539.4 805.72725,544.008 796.07925,544.008 Z M796.36725,539.256 C805.72725,539.256 813.07125,534.648 818.68725,528.168 L818.68725,495.624 C813.35925,490.872 806.01525,486.84 797.08725,486.84 C782.97525,486.84 772.89525,498.216 772.89525,513.192 C772.75125,528.456 782.68725,539.256 796.36725,539.256 Z M865.29375,544.008 C852.62175,544.008 845.27775,536.376 845.27775,526.872 C845.27775,516.072 854.63775,508.872 867.59775,508.872 C874.50975,508.872 882.42975,510.6 886.74975,512.328 L886.74975,501.384 C886.74975,497.64 885.74175,494.472 883.72575,492.024 C880.98975,488.856 876.23775,486.696 869.61375,486.696 C862.70175,486.696 858.66975,489 856.36575,491.304 C857.22975,492.168 857.80575,493.608 857.80575,495.192 C857.80575,497.352 856.07775,499.512 853.48575,499.512 C850.60575,499.512 848.87775,497.352 848.87775,494.616 C848.87775,489 856.50975,482.088 870.04575,482.088 C877.96575,482.088 884.15775,484.392 887.75775,488.568 C890.49375,491.592 891.93375,495.624 891.93375,500.52 L891.93375,538.248 L902.30175,538.248 L902.30175,543 L886.89375,543 L886.89375,533.928 C881.99775,539.256 874.07775,544.008 865.29375,544.008 Z M866.01375,539.4 C874.50975,539.4 881.70975,534.648 886.74975,528.888 L886.74975,516.36 C881.27775,514.632 874.36575,513.336 867.88575,513.336 C856.07775,513.336 850.60575,519.528 850.60575,526.584 C850.60575,533.352 855.50175,539.4 866.01375,539.4 Z M932.06025,561.432 C927.59625,568.488 922.98825,571.8 917.08425,571.8 C912.47625,571.8 909.02025,569.352 909.02025,565.752 C909.02025,563.16 910.89225,561.288 913.48425,561.288 C916.65225,561.288 918.66825,564.312 918.38025,567.048 C921.69225,566.616 924.86025,564.6 928.46025,558.84 C930.18825,556.104 932.06025,552.36 934.07625,547.896 L937.53225,540.264 L914.34825,487.848 L905.42025,487.848 L905.42025,483.096 L931.05225,483.096 L931.05225,487.848 L920.39625,487.848 L940.12425,534.648 L960.28425,487.848 L949.34025,487.848 L949.34025,483.096 L974.54025,483.096 L974.54025,487.848 L965.61225,487.848 L937.53225,551.064 C935.66025,555.24 933.93225,558.408 932.06025,561.432 Z M1026.04275,494.04 C1026.04275,496.776 1024.17075,498.792 1021.72275,498.792 C1019.13075,498.792 1017.25875,496.776 1017.25875,494.328 C1017.25875,493.32 1017.54675,491.88 1018.69875,490.584 C1015.81875,487.848 1010.20275,486.696 1005.01875,486.696 C995.22675,486.696 989.17875,491.88 989.17875,498.072 C989.17875,504.984 996.66675,507 1006.74675,509.592 C1017.54675,512.328 1028.05875,515.64 1028.05875,527.304 C1028.05875,537.384 1018.41075,544.008 1005.45075,544.008 C996.66675,544.008 988.74675,540.984 984.71475,536.808 C982.98675,535.08 981.97875,533.064 981.97875,530.616 C981.97875,527.88 983.85075,525.72 986.29875,525.72 C989.03475,525.72 990.76275,527.592 990.76275,530.04 C990.76275,531.624 990.18675,532.92 989.03475,533.784 C990.90675,536.52 997.38675,539.4 1005.30675,539.4 C1016.25075,539.4 1022.87475,534.504 1022.87475,527.448 C1022.87475,519.528 1014.95475,517.08 1005.59475,514.776 C993.64275,511.896 983.99475,508.872 983.99475,498.216 C983.99475,489.144 992.77875,482.088 1005.16275,482.088 C1013.65875,482.088 1019.99475,484.68 1023.30675,488.136 C1025.17875,490.008 1026.04275,491.88 1026.04275,494.04 Z" transform="translate(-405 -437)"/>
</svg>
